<?xml version="1.0" encoding="UTF-8" standalone="no"?>
<!DOCTYPE svg PUBLIC "-//W3C//DTD SVG 1.1//EN"
 "http://www.w3.org/Graphics/SVG/1.1/DTD/svg11.dtd">
<!-- Generated by graphviz version 2.40.1 (20161225.0304)
 -->
<!-- Title: dependencies Pages: 1 -->
<svg width="894pt" height="284pt"
 viewBox="0.00 0.00 894.00 284.00" xmlns="http://www.w3.org/2000/svg" xmlns:xlink="http://www.w3.org/1999/xlink">
<g id="graph0" class="graph" transform="scale(1 1) rotate(0) translate(4 280)">
<title>dependencies</title>
<polygon fill="#ffffff" stroke="transparent" points="-4,4 -4,-280 890,-280 890,4 -4,4"/>
<text text-anchor="start" x="422.0091" y="-42.4" font-family="sans-serif" font-weight="bold" font-size="14.00" fill="#000000">Legend</text>
<polygon fill="#ffffb3" stroke="transparent" points="209,-10 209,-30 229,-30 229,-10 209,-10"/>
<text text-anchor="start" x="232.629" y="-15.4" font-family="sans-serif" font-size="14.00" fill="#000000"> &#160;Declarations</text>
<polygon fill="#8dd3c7" stroke="transparent" points="322,-10 322,-30 342,-30 342,-10 322,-10"/>
<text text-anchor="start" x="345.7251" y="-15.4" font-family="sans-serif" font-size="14.00" fill="#000000"> &#160;Module</text>
<polygon fill="#80b1d3" stroke="transparent" points="408,-10 408,-30 428,-30 428,-10 408,-10"/>
<text text-anchor="start" x="431.7812" y="-15.4" font-family="sans-serif" font-size="14.00" fill="#000000"> &#160;Bootstrap</text>
<polygon fill="#fdb462" stroke="transparent" points="505,-10 505,-30 525,-30 525,-10 505,-10"/>
<text text-anchor="start" x="528.6732" y="-15.4" font-family="sans-serif" font-size="14.00" fill="#000000"> &#160;Providers</text>
<polygon fill="#fb8072" stroke="transparent" points="601,-10 601,-30 621,-30 621,-10 601,-10"/>
<text text-anchor="start" x="624.7258" y="-15.4" font-family="sans-serif" font-size="14.00" fill="#000000"> &#160;Exports</text>
<g id="clust1" class="cluster">
<title>cluster_AppModule</title>
<polygon fill="none" stroke="#000000" stroke-dasharray="1,5" points="8,-70 8,-268 878,-268 878,-70 8,-70"/>
</g>
<g id="clust2" class="cluster">
<title>cluster_AppModule_declarations</title>
<polygon fill="none" stroke="#000000" points="16,-78 16,-130 870,-130 870,-78 16,-78"/>
</g>
<g id="clust11" class="cluster">
<title>cluster_AppModule_bootstrap</title>
<polygon fill="none" stroke="#000000" points="411,-208 411,-260 535,-260 535,-208 411,-208"/>
</g>
<!-- AppComponent -->
<g id="node1" class="node">
<title>AppComponent</title>
<polygon fill="#ffffb3" stroke="#000000" points="861.9399,-122 756.0601,-122 756.0601,-86 861.9399,-86 861.9399,-122"/>
<text text-anchor="middle" x="809" y="-99.8" font-family="Times,serif" font-size="14.00" fill="#000000">AppComponent</text>
</g>
<!-- AppModule -->
<g id="node7" class="node">
<title>AppModule</title>
<polygon fill="#8dd3c7" stroke="#000000" points="514.6571,-187 511.6571,-191 490.6571,-191 487.6571,-187 431.3429,-187 431.3429,-151 514.6571,-151 514.6571,-187"/>
<text text-anchor="middle" x="473" y="-164.8" font-family="Times,serif" font-size="14.00" fill="#000000">AppModule</text>
</g>
<!-- AppComponent&#45;&gt;AppModule -->
<g id="edge1" class="edge">
<title>AppComponent&#45;&gt;AppModule</title>
<path fill="none" stroke="#000000" d="M809,-122.2843C809,-143.3211 809,-175 809,-175 809,-175 524.8753,-175 524.8753,-175"/>
<polygon fill="#000000" stroke="#000000" points="524.8753,-171.5001 514.8753,-175 524.8752,-178.5001 524.8753,-171.5001"/>
</g>
<!-- HeaderComponent -->
<g id="node2" class="node">
<title>HeaderComponent</title>
<polygon fill="#ffffb3" stroke="#000000" points="737.7437,-122 616.2563,-122 616.2563,-86 737.7437,-86 737.7437,-122"/>
<text text-anchor="middle" x="677" y="-99.8" font-family="Times,serif" font-size="14.00" fill="#000000">HeaderComponent</text>
</g>
<!-- HeaderComponent&#45;&gt;AppModule -->
<g id="edge2" class="edge">
<title>HeaderComponent&#45;&gt;AppModule</title>
<path fill="none" stroke="#000000" d="M677,-122.0225C677,-139.3734 677,-163 677,-163 677,-163 524.7747,-163 524.7747,-163"/>
<polygon fill="#000000" stroke="#000000" points="524.7747,-159.5001 514.7747,-163 524.7747,-166.5001 524.7747,-159.5001"/>
</g>
<!-- HomeComponent -->
<g id="node3" class="node">
<title>HomeComponent</title>
<polygon fill="#ffffb3" stroke="#000000" points="597.5451,-122 482.4549,-122 482.4549,-86 597.5451,-86 597.5451,-122"/>
<text text-anchor="middle" x="540" y="-99.8" font-family="Times,serif" font-size="14.00" fill="#000000">HomeComponent</text>
</g>
<!-- HomeComponent&#45;&gt;AppModule -->
<g id="edge3" class="edge">
<title>HomeComponent&#45;&gt;AppModule</title>
<path fill="none" stroke="#000000" d="M498.5281,-122.1061C498.5281,-122.1061 498.5281,-140.991 498.5281,-140.991"/>
<polygon fill="#000000" stroke="#000000" points="495.0281,-140.9909 498.5281,-150.991 502.0281,-140.991 495.0281,-140.9909"/>
</g>
<!-- AboutComponent -->
<g id="node4" class="node">
<title>AboutComponent</title>
<polygon fill="#ffffb3" stroke="#000000" points="464.3301,-122 347.6699,-122 347.6699,-86 464.3301,-86 464.3301,-122"/>
<text text-anchor="middle" x="406" y="-99.8" font-family="Times,serif" font-size="14.00" fill="#000000">AboutComponent</text>
</g>
<!-- AboutComponent&#45;&gt;AppModule -->
<g id="edge4" class="edge">
<title>AboutComponent&#45;&gt;AppModule</title>
<path fill="none" stroke="#000000" d="M447.6683,-122.1061C447.6683,-122.1061 447.6683,-140.991 447.6683,-140.991"/>
<polygon fill="#000000" stroke="#000000" points="444.1684,-140.9909 447.6683,-150.991 451.1684,-140.991 444.1684,-140.9909"/>
</g>
<!-- RestaurantsComponent -->
<g id="node5" class="node">
<title>RestaurantsComponent</title>
<polygon fill="#ffffb3" stroke="#000000" points="330.1442,-122 183.8558,-122 183.8558,-86 330.1442,-86 330.1442,-122"/>
<text text-anchor="middle" x="257" y="-99.8" font-family="Times,serif" font-size="14.00" fill="#000000">RestaurantsComponent</text>
</g>
<!-- RestaurantsComponent&#45;&gt;AppModule -->
<g id="edge5" class="edge">
<title>RestaurantsComponent&#45;&gt;AppModule</title>
<path fill="none" stroke="#000000" d="M257,-122.0225C257,-139.3734 257,-163 257,-163 257,-163 421.0969,-163 421.0969,-163"/>
<polygon fill="#000000" stroke="#000000" points="421.0969,-166.5001 431.0969,-163 421.0969,-159.5001 421.0969,-166.5001"/>
</g>
<!-- RestaurantComponent -->
<g id="node6" class="node">
<title>RestaurantComponent</title>
<polygon fill="#ffffb3" stroke="#000000" points="165.6993,-122 24.3007,-122 24.3007,-86 165.6993,-86 165.6993,-122"/>
<text text-anchor="middle" x="95" y="-99.8" font-family="Times,serif" font-size="14.00" fill="#000000">RestaurantComponent</text>
</g>
<!-- RestaurantComponent&#45;&gt;AppModule -->
<g id="edge6" class="edge">
<title>RestaurantComponent&#45;&gt;AppModule</title>
<path fill="none" stroke="#000000" d="M95,-122.2843C95,-143.3211 95,-175 95,-175 95,-175 421.1031,-175 421.1031,-175"/>
<polygon fill="#000000" stroke="#000000" points="421.1032,-178.5001 431.1031,-175 421.1031,-171.5001 421.1032,-178.5001"/>
</g>
<!-- AppComponent  -->
<g id="node8" class="node">
<title>AppComponent </title>
<polygon fill="#80b1d3" stroke="#000000" points="527.439,-252 418.561,-252 418.561,-216 527.439,-216 527.439,-252"/>
<text text-anchor="middle" x="473" y="-229.8" font-family="Times,serif" font-size="14.00" fill="#000000">AppComponent </text>
</g>
<!-- AppModule&#45;&gt;AppComponent  -->
<g id="edge7" class="edge">
<title>AppModule&#45;&gt;AppComponent </title>
<path fill="none" stroke="#000000" stroke-dasharray="1,5" d="M473,-187.1061C473,-187.1061 473,-205.991 473,-205.991"/>
<polygon fill="#000000" stroke="#000000" points="469.5001,-205.9909 473,-215.991 476.5001,-205.991 469.5001,-205.9909"/>
</g>
</g>
</svg>
